<svg version="1.2" xmlns="http://www.w3.org/2000/svg" viewBox="0 0 666 630" width="666" height="630">
	<title>flecks-svg</title>
	<defs>
		<clipPath clipPathUnits="userSpaceOnUse" id="cp1">
			<path d="m0 0h666v630h-666z"/>
		</clipPath>
		<linearGradient id="g1" x1="-177.2" y1="-290.5" x2="979.1" y2="230.2" gradientUnits="userSpaceOnUse">
			<stop offset="0" stop-color="#264089"/>
			<stop offset="1" stop-color="#264089" stop-opacity="0"/>
		</linearGradient>
		<linearGradient id="g2" x1="178" y1="-302" x2="886.8" y2="629.4" gradientUnits="userSpaceOnUse">
			<stop offset="0" stop-color="#ffffff"/>
			<stop offset="1" stop-color="#ffffff" stop-opacity="0"/>
		</linearGradient>
	</defs>
	<style>
		.s0 { opacity: .1;fill: url(#g1) } 
		.s1 { opacity: .1;fill: url(#g2) } 
	</style>
	<g id="Clip-Path" clip-path="url(#cp1)">
		<g id="Layer">
			<path id="Layer" class="s0" d="m641.9 413.4c-186.5 101.3-445-15.1-578.2-260.4-133.2-245.3-90.2-525.4 96.3-626.7 186.5-101.3 445 15.1 578.2 260.4 133.2 245.2 90.2 525.4-96.3 626.7z"/>
			<path id="Layer" class="s1" d="m532 630c-195.8 0-354-208.3-354-466 0-257.7 158.2-466 354-466 195.8 0 354 208.3 354 466 0 257.7-158.2 466-354 466z"/>
		</g>
	</g>
</svg>