<svg width="144" height="41" viewBox="0 0 144 41" fill="none" xmlns="http://www.w3.org/2000/svg">
<path d="M125.455 21.361L130.463 14.646H127.173L123.81 19.156L120.447 14.646H117.169L122.169 21.353L117.138 28.099H120.428L123.814 23.559L127.198 28.104H130.476L125.455 21.361Z" fill="white"/>
<path d="M54.6543 16.5519C55.8303 14.8519 57.2833 14.3079 59.8713 14.5019C59.8783 14.5019 59.8713 17.6129 59.8713 17.6129C57.2303 16.9629 55.3333 18.1129 54.8063 20.0829C54.6954 20.5265 54.6437 20.9828 54.6523 21.4399C54.6523 23.4859 54.6633 28.1399 54.6633 28.1399C54.6633 28.1399 51.7723 28.1059 51.7383 28.1399C51.7473 23.9079 51.7463 18.8709 51.7383 14.6399L54.6583 14.6249C54.6583 14.6249 54.6523 16.025 54.6523 16.554" fill="white"/>
<path d="M80.2687 16.327C81.0634 15.3836 82.1478 14.7295 83.353 14.4667C84.5581 14.2039 85.8164 14.3471 86.9317 14.874C87.8945 15.2221 88.7232 15.8647 89.2999 16.7106C89.8767 17.5565 90.1723 18.5625 90.1447 19.586C90.2057 22.316 90.1577 25.386 90.1737 28.119C90.1737 28.109 87.2527 28.119 87.2507 28.119C87.2667 25.849 87.2557 23.206 87.2607 20.937C87.2746 20.4547 87.2201 19.9729 87.0987 19.506C86.964 18.9231 86.66 18.3931 86.225 17.9825C85.79 17.5718 85.2433 17.2989 84.6537 17.198C84.033 17.0497 83.383 17.0797 82.7786 17.2844C82.1741 17.4891 81.6397 17.8601 81.2367 18.355C80.5761 19.1517 80.2315 20.1636 80.2687 21.198C80.2687 23.347 80.2557 25.97 80.2787 28.119C80.2527 28.11 77.3467 28.138 77.3467 28.138V14.644H80.2747C80.2747 14.644 80.2687 15.808 80.2687 16.327Z" fill="white"/>
<path d="M97.0368 23.699C97.0139 23.9324 97.0377 24.1679 97.1069 24.3919C97.1762 24.6159 97.2894 24.8239 97.4399 25.0036C97.5905 25.1834 97.7755 25.3312 97.9839 25.4386C98.1923 25.546 98.4201 25.6107 98.6538 25.629C99.5572 25.6198 100.455 25.489 101.324 25.24V27.995C100.02 28.3109 98.6696 28.3929 97.3368 28.237C96.4598 28.0633 95.6703 27.5903 95.1032 26.8991C94.5362 26.2078 94.2267 25.3411 94.2278 24.447C94.1468 22.217 94.2138 17.134 94.2138 17.134H91.6328V14.681H94.2218L94.2138 11.269H97.0408V14.681H101.201V17.135H97.0398C97.0398 17.135 97.0258 22.702 97.0398 23.699" fill="white"/>
<path d="M108.159 14.4799C106.425 14.8887 104.913 15.945 103.933 17.4324C102.953 18.9197 102.578 20.7255 102.886 22.4799C103.178 24.2904 104.17 25.9137 105.648 26.9989C107.126 28.0842 108.972 28.5443 110.787 28.2799C111.876 28.1624 112.923 27.7932 113.845 27.2014C114.767 26.6096 115.539 25.8114 116.1 24.8699C116.106 24.8599 113.68 24.0849 113.68 24.0849C113.68 24.0849 111.681 25.7039 109.981 25.7039C108.981 25.7943 107.984 25.5036 107.189 24.8899C106.394 24.2763 105.861 23.3851 105.696 22.3949C105.696 22.3719 116.696 22.3949 116.696 22.3949C116.733 22.2398 116.754 22.0813 116.76 21.9219C116.854 20.8156 116.685 19.7026 116.267 18.6742C115.848 17.6458 115.191 16.7313 114.351 16.0057C113.51 15.28 112.51 14.764 111.431 14.4998C110.353 14.2356 109.227 14.2309 108.146 14.4859L108.159 14.4799ZM114.075 19.9079H105.851C106.036 19.0132 106.515 18.2061 107.212 17.6148C107.908 17.0234 108.783 16.6817 109.696 16.6439C110.623 16.5608 111.552 16.7924 112.332 17.3014C113.112 17.8104 113.698 18.5672 113.995 19.4499C114.039 19.5994 114.07 19.7523 114.088 19.9069" fill="white"/>
<path d="M34.5065 21.4011C34.4809 20.4668 34.6443 19.537 34.9869 18.6674C35.3294 17.7979 35.8442 17.0065 36.5002 16.3408C37.1562 15.6751 37.9398 15.1488 38.8043 14.7935C39.6687 14.4382 40.596 14.2612 41.5306 14.2731C43.201 14.2332 44.8224 14.8388 46.0575 15.9641V14.6641H48.9256V28.1141H46.0055L46.0315 26.7351C45.4438 27.3241 44.7407 27.7853 43.9664 28.0897C43.192 28.3941 42.363 28.5352 41.5315 28.5041C40.5986 28.519 39.6722 28.345 38.8083 27.9925C37.9443 27.6399 37.1607 27.1163 36.5044 26.4529C35.8482 25.7896 35.3331 25.0003 34.9899 24.1327C34.6467 23.265 34.4827 22.3368 34.5076 21.4041L34.5065 21.4011ZM46.2136 21.3781C46.2551 20.774 46.1688 20.168 45.9604 19.5995C45.752 19.0311 45.4261 18.5129 45.004 18.0788C44.5818 17.6448 44.0729 17.3046 43.5104 17.0805C42.948 16.8564 42.3445 16.7533 41.7396 16.7781C41.1451 16.783 40.5577 16.9067 40.0118 17.1418C39.4658 17.377 38.9723 17.7188 38.5604 18.1474C38.1484 18.5759 37.8263 19.0825 37.6128 19.6373C37.3994 20.1921 37.299 20.7839 37.3176 21.3781C37.2978 21.974 37.3972 22.5679 37.6098 23.125C37.8224 23.6821 38.1441 24.1912 38.5558 24.6224C38.9676 25.0537 39.4613 25.3984 40.008 25.6365C40.5547 25.8746 41.1433 26.0013 41.7396 26.0091C42.347 26.033 42.9526 25.9283 43.5168 25.7019C44.081 25.4755 44.591 25.1324 45.0134 24.6952C45.4357 24.258 45.761 23.7365 45.9678 23.1649C46.1747 22.5932 46.2584 21.9843 46.2136 21.3781Z" fill="white"/>
<path d="M60.3083 21.4011C60.2826 20.4668 60.4459 19.537 60.7885 18.6674C61.1311 17.7979 61.6458 17.0065 62.3018 16.3408C62.9578 15.6751 63.7416 15.1488 64.606 14.7935C65.4704 14.4382 66.3977 14.2612 67.3323 14.2731C69.0027 14.2332 70.6241 14.8388 71.8592 15.9641V14.6641H74.7273V28.1141H71.8073L71.8332 26.7351C71.2455 27.3241 70.5424 27.7853 69.7681 28.0897C68.9937 28.3941 68.1647 28.5352 67.3332 28.5041C66.4003 28.519 65.474 28.345 64.61 27.9925C63.7461 27.6399 62.9624 27.1163 62.3062 26.4529C61.65 25.7896 61.1347 25.0003 60.7916 24.1327C60.4484 23.265 60.2843 22.3368 60.3093 21.4041L60.3083 21.4011ZM72.0153 21.3781C72.0568 20.7739 71.9706 20.1678 71.7621 19.5993C71.5536 19.0307 71.2276 18.5125 70.8053 18.0785C70.383 17.6444 69.874 17.3043 69.3115 17.0802C68.7489 16.8561 68.1453 16.7532 67.5403 16.7781C66.9459 16.783 66.3584 16.9067 65.8124 17.1418C65.2665 17.377 64.773 17.7188 64.3611 18.1474C63.9491 18.5759 63.627 19.0825 63.4136 19.6373C63.2001 20.1921 63.0997 20.7839 63.1183 21.3781C63.0985 21.974 63.1979 22.5679 63.4105 23.125C63.6231 23.6821 63.9448 24.1912 64.3566 24.6224C64.7684 25.0537 65.262 25.3984 65.8087 25.6365C66.3554 25.8746 66.944 26.0013 67.5403 26.0091C68.1478 26.0331 68.7536 25.9286 69.3179 25.7022C69.8822 25.4758 70.3923 25.1328 70.8148 24.6956C71.2372 24.2584 71.5626 23.7368 71.7695 23.1651C71.9764 22.5934 72.0601 21.9844 72.0153 21.3781Z" fill="white"/>
<path d="M144 41H0V0H144V41ZM2.97302 38.031H141.027V2.96899H2.96802L2.97302 38.031Z" fill="white"/>
<path d="M23.724 17.7849V20.6619H29.4771C29.1144 22.0304 28.3159 23.2435 27.2023 24.1177C26.0887 24.9919 24.7206 25.4796 23.3051 25.5069C21.548 25.4551 19.883 24.7091 18.6747 23.4324C17.4664 22.1557 16.8131 20.4522 16.8581 18.6949C16.8131 16.9376 17.4664 15.2341 18.6747 13.9574C19.883 12.6806 21.548 11.9347 23.3051 11.8829C24.4824 11.8967 25.6331 12.2346 26.631 12.8594C27.6289 13.4842 28.4355 14.3718 28.9621 15.4249L31.5151 14.0989C30.7467 12.5772 29.5739 11.2968 28.1254 10.3982C26.6769 9.49952 25.0087 9.01744 23.3041 9.00488C20.7838 9.0569 18.3868 10.1061 16.6388 11.9225C14.8908 13.739 13.9343 16.1744 13.979 18.6949C13.9343 21.2154 14.8908 23.6508 16.6388 25.4672C18.3868 27.2836 20.7838 28.3329 23.3041 28.3849C24.5197 28.3814 25.7222 28.1348 26.8411 27.6596C27.96 27.1844 28.9726 26.4902 29.8191 25.6179V28.1179H32.6961V17.7849H23.724Z" fill="white"/>
</svg>
